<svg xmlns="http://www.w3.org/2000/svg" viewBox="0 0 1200 800">
  <rect width="1200" height="800" fill="#142033"/>
  <g fill="#25476c">
    <rect x="90" y="110" width="300" height="210" rx="24"/>
    <rect x="450" y="110" width="300" height="210" rx="24"/>
    <rect x="810" y="110" width="300" height="210" rx="24"/>
    <rect x="90" y="480" width="300" height="210" rx="24"/>
    <rect x="450" y="480" width="300" height="210" rx="24"/>
    <rect x="810" y="480" width="300" height="210" rx="24"/>
  </g>
  <g stroke="#93c5fd" stroke-width="12" fill="none">
    <path d="M390 215 H450 M750 215 H810 M240 320 V480 M600 320 V480 M960 320 V480"/>
  </g>
  <g fill="#bfdbfe">
    <circle cx="240" cy="215" r="44"/>
    <circle cx="600" cy="215" r="44"/>
    <circle cx="960" cy="215" r="44"/>
    <circle cx="240" cy="585" r="44"/>
    <circle cx="600" cy="585" r="44"/>
    <circle cx="960" cy="585" r="44"/>
  </g>
</svg>
